<svg width="240" height="240" viewBox="0 0 240 240" fill="none" xmlns="http://www.w3.org/2000/svg">
<g clip-path="url(#clip0_185_255)">
<path d="M240 219C240 227.24 233.24 234 225 234H15C6.76 234 0 227.24 0 219V129C0 120.76 4.78 109.22 10.6 103.4L109.4 4.61999C115.24 -1.22001 124.78 -1.22001 130.62 4.61999L229.4 103.4C235.24 109.24 240 120.76 240 129V219Z" fill="#18BCF2"/>
<path d="M160 78.6599H80C76.68 78.6599 74 81.3399 74 84.6599V234H86V90.6599H154V102.66H104C100.68 102.66 98 105.34 98 108.66V132.66C98 135.98 100.68 138.66 104 138.66H154V150.66H104C100.68 150.66 98 153.34 98 156.66V180.66C98 183.98 100.68 186.66 104 186.66H154V198.66H104C100.68 198.66 98 201.34 98 204.66C98 207.98 100.68 210.66 104 210.66H160C163.32 210.66 166 207.98 166 204.66V180.66C166 177.34 163.32 174.66 160 174.66H110V162.66H160C163.32 162.66 166 159.98 166 156.66V132.66C166 129.34 163.32 126.66 160 126.66H110V114.66H160C163.32 114.66 166 111.98 166 108.66V84.6599C166 81.3399 163.32 78.6599 160 78.6599Z" fill="#F2F4F9"/>
</g>
<defs>
<clipPath id="clip0_185_255">
<rect width="240" height="240" fill="white"/>
</clipPath>
</defs>
</svg>
