<svg width="40" height="40" viewBox="0 0 40 40" fill="none" xmlns="http://www.w3.org/2000/svg">
<path d="M18.2334 0.769668C19.2066 -0.203238 20.7962 -0.203103 21.7695 0.769668L38.2334 17.2335C39.2067 18.2069 40 20.1268 40 21.5001V36.5001C40 37.8735 38.8733 39.0001 37.5 39.0001H14.333V15.1105H25.667V17.1105H17.333C16.7798 17.1107 16.333 17.5573 16.333 18.1105V22.1105C16.3332 22.6636 16.7799 23.1103 17.333 23.1105H25.667V25.1105H17.333C16.7798 25.1107 16.333 25.5573 16.333 26.1105V30.1105C16.3332 30.6636 16.7799 31.1103 17.333 31.1105H25.667V33.1105H17.333C16.7798 33.1107 16.333 33.5573 16.333 34.1105C16.3332 34.6636 16.7799 35.1103 17.333 35.1105H26.667C27.2201 35.1103 27.6668 34.6636 27.667 34.1105V30.1105C27.667 29.5573 27.2202 29.1107 26.667 29.1105H18.333V27.1105H26.667C27.2201 27.1103 27.6668 26.6636 27.667 26.1105V22.1105C27.667 21.5573 27.2202 21.1107 26.667 21.1105H18.333V19.1105H26.667C27.2201 19.1103 27.6668 18.6636 27.667 18.1105V14.1105C27.667 13.5573 27.2202 13.1107 26.667 13.1105H13.333C12.7798 13.1107 12.333 13.5573 12.333 14.1105V39.0001H2.5C1.12667 39.0001 0 37.8735 0 36.5001V21.5001C2.59838e-06 20.1268 0.796631 18.2036 1.7666 17.2335L18.2334 0.769668Z" fill="#F2F4F9" style="fill:#F2F4F9;fill:color(display-p3 0.9490 0.9569 0.9765);fill-opacity:1;"/>
</svg>
